<?xml version="1.0" encoding="UTF-8" standalone="no"?>
<!-- Created with Inkscape (http://www.inkscape.org/) -->

<svg
   width="1024"
   height="768"
   viewBox="0 0 1024 768"
   version="1.1"
   id="svg1"
   xml:space="preserve"
   xmlns:xlink="http://www.w3.org/1999/xlink"
   xmlns="http://www.w3.org/2000/svg"
   xmlns:svg="http://www.w3.org/2000/svg"><defs
     id="defs1"><linearGradient
       id="linearGradient71"><stop
         style="stop-color:#3d8884;stop-opacity:1;"
         offset="0"
         id="stop71" /><stop
         style="stop-color:#0c0000;stop-opacity:1;"
         offset="1"
         id="stop72" /></linearGradient><linearGradient
       xlink:href="#linearGradient71"
       id="linearGradient72"
       x1="529.6319"
       y1="92.319252"
       x2="523.10901"
       y2="741.80988"
       gradientUnits="userSpaceOnUse"
       gradientTransform="translate(10.343962,10.343962)" /></defs><g
     id="layer1"
     style="display:none"><path
       style="fill:#000000;fill-opacity:1;fill-rule:nonzero;stroke:#000000;stroke-width:0;stroke-dasharray:none;stroke-opacity:1"
       d="m 504.45138,602.74551 c -2.42767,-0.85963 -5.83665,-2.89197 -7.57552,-4.51632 -5.37932,-5.02504 -4.59717,-10.58145 7.28425,-51.74756 7.95081,-27.54755 14.70946,-47.0253 30.43324,-87.70558 10.2484,-26.51449 14.15205,-37.77421 13.28233,-38.31172 -3.08647,-1.90755 -64.78569,-3.60351 -69.60538,-1.91328 -7.17485,2.51615 -7.02102,1.0645 -7.02395,66.2816 -0.002,49.45238 -0.24497,59.14578 -1.56735,62.59193 -2.33589,6.08734 -3.91488,6.62207 -11.02845,3.73488 -17.10185,-6.94114 -18.21869,-11.75695 -18.9749,-81.82004 l -0.52811,-48.92996 -36.71663,0.3422 c -33.10622,0.30857 -37.09591,0.53087 -40.5738,2.26081 -2.12145,1.05523 -4.52068,2.93605 -5.33164,4.17959 -0.81094,1.24355 -4.80277,10.95978 -8.87072,21.59161 -4.06794,10.63184 -8.76282,22.62204 -10.43306,26.6449 -1.67024,4.02286 -5.47123,14.83755 -8.44664,24.03265 -6.1814,19.10278 -10.84373,28.36051 -15.71759,31.20958 -3.15523,1.84443 -3.58749,1.85791 -7.81419,0.24372 -5.22588,-1.99578 -10.86388,-7.14302 -11.76746,-10.74318 -0.34828,-1.38768 -0.32109,-4.49923 0.0604,-6.91455 1.25053,-7.9168 10.96615,-38.09207 18.50691,-57.47972 8.4728,-21.78394 10.30787,-27.24395 10.30787,-30.66967 v -2.44618 h -34.58156 c -34.00298,0 -34.63669,-0.0387 -37.87755,-2.31265 -8.86634,-6.22113 -9.97378,-12.95244 -2.52034,-15.31927 1.87217,-0.5945 20.80149,-2.06757 42.06516,-3.27348 21.26368,-1.20591 40.14019,-2.6582 41.94781,-3.22731 2.60334,-0.81963 3.76265,-2.16581 5.57656,-6.4755 1.25948,-2.99242 5.03542,-11.78852 8.39097,-19.54689 3.35555,-7.75836 10.6471,-24.92081 16.20345,-38.13877 20.25994,-48.19622 45.55353,-103.21637 56.97985,-123.94603 8.50585,-15.43132 19.77543,-32.22602 24.02209,-35.79935 2.96914,-2.49836 3.9146,-2.74343 8.1874,-2.12226 8.66081,1.25909 17.20608,7.03209 21.66086,14.63362 l 2.69645,4.60113 -0.77081,102.29136 -0.77083,102.29136 10.86056,0.72087 c 12.78625,0.84868 63.15053,0.33105 64.13801,-0.65919 0.37425,-0.37529 -1.22142,-8.60386 -3.54594,-18.28571 -11.25532,-46.87967 -20.62596,-113.97038 -21.29864,-152.49145 -0.31707,-18.1567 1.18137,-19.2156 16.82078,-11.88672 15.99845,7.49713 15.76013,6.91528 16.98601,41.4698 1.23189,34.7234 5.46037,69.9003 11.02547,91.72134 2.81978,11.05645 6.07604,13.43534 8.83645,6.45553 4.03621,-10.20575 55.99063,-119.1905 62.80953,-131.75549 0.59756,-1.1011 3.60953,-8.10338 6.69327,-15.56061 8.58693,-20.76524 8.36848,-20.59225 19.58381,-15.50698 8.40455,3.8108 11.14649,7.19806 11.14649,13.76983 0,9.79338 -8.53226,30.72708 -29.64199,72.72592 -23.48539,46.72531 -57.01581,117.42284 -56.42345,118.96652 0.33787,0.88048 1.85551,1.94947 3.37253,2.37552 3.4454,0.96766 135.54842,1.03513 136.51363,0.0697 1.42835,-1.42865 -0.71143,-4.6157 -5.48984,-8.1767 -25.36264,-18.90092 -34.9408,-31.24496 -28.65677,-36.93193 2.61204,-2.36387 6.01838,-2.15604 12.19527,0.74406 11.58111,5.43744 69.1128,45.59143 72.30696,50.46631 3.54385,5.40861 -0.60736,9.67015 -25.809,26.49498 -19.56525,13.06194 -32.55566,22.4626 -47.36097,34.2733 -12.86476,10.26267 -19.92121,14.8145 -22.96606,14.8145 -2.37378,0 -4.90562,-3.6017 -4.90562,-6.97856 0,-6.00878 11.99907,-18.7037 35.52653,-37.58683 13.99209,-11.23004 16.40231,-13.56808 15.21333,-14.75782 -1.0611,-1.06178 -142.39364,-1.52707 -147.40777,-0.48528 l -4.09548,0.85091 -5.1047,14.589 c -2.80759,8.02394 -9.0987,25.87389 -13.98026,39.66654 -27.66793,78.17463 -36.19853,103.20342 -38.58569,113.21048 -3.35256,14.05407 -4.44839,15.86016 -9.55739,15.75192 -2.14185,-0.0454 -5.88055,-0.78582 -8.30821,-1.64546 z M 410.49394,396.60776 c 15.43371,-0.50405 28.45798,-1.31353 28.94282,-1.79884 0.94367,-0.94457 4.4753,-134.2229 3.92736,-148.213 -0.18243,-4.65793 -0.79005,-8.35919 -1.37228,-8.35919 -2.72214,0 -29.4196,51.89483 -37.62858,73.14286 -1.33216,3.44817 -8.97796,21.31592 -16.99065,39.70612 -15.31458,35.14895 -18.54826,43.56515 -17.64405,45.92149 0.40947,1.06704 2.11094,1.31769 6.6275,0.9763 3.34213,-0.25261 18.70417,-0.8717 34.13788,-1.37574 z"
       id="path38" /></g><ellipse
     style="fill:url(#linearGradient72);fill-rule:nonzero;stroke:#000000;stroke-width:0;stroke-dasharray:none;stroke-opacity:1"
     id="path56"
     cx="534.19177"
     cy="387.15973"
     rx="303.66916"
     ry="291.10864" /><g
     id="g39"
     style="fill:#c3cf2f;fill-opacity:1"><path
       style="fill:#ffffff;fill-opacity:1;fill-rule:nonzero;stroke:#000000;stroke-width:0;stroke-dasharray:none;stroke-opacity:1"
       d="m 528.09472,601.2678 c -2.42767,-0.85963 -5.83665,-2.89197 -7.57552,-4.51632 -5.37932,-5.02504 -4.59717,-10.58145 7.28425,-51.74756 7.95081,-27.54755 14.70946,-47.0253 30.43324,-87.70558 10.2484,-26.51449 14.15205,-37.77421 13.28233,-38.31172 -3.08647,-1.90755 -64.78569,-3.60351 -69.60538,-1.91328 -7.17485,2.51615 -7.02102,1.0645 -7.02395,66.2816 -0.002,49.45238 -0.24497,59.14578 -1.56735,62.59193 -2.33589,6.08734 -3.91488,6.62207 -11.02845,3.73488 -17.10185,-6.94114 -18.21869,-11.75695 -18.9749,-81.82004 l -0.52811,-48.92996 -36.71663,0.3422 c -33.10622,0.30857 -37.09591,0.53087 -40.5738,2.26081 -2.12145,1.05523 -4.52068,2.93605 -5.33164,4.17959 -0.81094,1.24355 -4.80277,10.95978 -8.87072,21.59161 -4.06794,10.63184 -8.76282,22.62204 -10.43306,26.6449 -1.67024,4.02286 -5.47123,14.83755 -8.44664,24.03265 -6.1814,19.10278 -10.84373,28.36051 -15.71759,31.20958 -3.15523,1.84443 -3.58749,1.85791 -7.81419,0.24372 -5.22588,-1.99578 -10.86388,-7.14302 -11.76746,-10.74318 -0.34828,-1.38768 -0.32109,-4.49923 0.0604,-6.91455 1.25053,-7.9168 10.96615,-38.09207 18.50691,-57.47972 8.4728,-21.78394 10.30787,-27.24395 10.30787,-30.66967 v -2.44618 h -34.58156 c -34.00298,0 -34.63669,-0.0387 -37.87755,-2.31265 -8.86634,-6.22113 -9.97378,-12.95244 -2.52034,-15.31927 1.87217,-0.5945 20.80149,-2.06757 42.06516,-3.27348 21.26368,-1.20591 40.14019,-2.6582 41.94781,-3.22731 2.60334,-0.81963 3.76265,-2.16581 5.57656,-6.4755 1.25948,-2.99242 5.03542,-11.78852 8.39097,-19.54689 3.35555,-7.75836 10.6471,-24.92081 16.20345,-38.13877 20.25994,-48.19622 45.55353,-103.21637 56.97985,-123.94603 8.50585,-15.43132 19.77543,-32.22602 24.02209,-35.79935 2.96914,-2.49836 3.9146,-2.74343 8.1874,-2.12226 8.66081,1.25909 17.20608,7.03209 21.66086,14.63362 l 2.69645,4.60113 -0.77081,102.29136 -0.77083,102.29136 10.86056,0.72087 c 12.78625,0.84868 63.15053,0.33105 64.13801,-0.65919 0.37425,-0.37529 -1.22142,-8.60386 -3.54594,-18.28571 -11.25532,-46.87967 -20.62596,-113.97038 -21.29864,-152.49145 -0.31707,-18.1567 1.18137,-19.2156 16.82078,-11.88672 15.99845,7.49713 15.76013,6.91528 16.98601,41.4698 1.23189,34.7234 5.46037,69.9003 11.02547,91.72134 2.81978,11.05645 6.07604,13.43534 8.83645,6.45553 4.03621,-10.20575 55.99063,-119.1905 62.80953,-131.75549 0.59756,-1.1011 3.60953,-8.10338 6.69327,-15.56061 8.58693,-20.76524 8.36848,-20.59225 19.58381,-15.50698 8.40455,3.8108 11.14649,7.19806 11.14649,13.76983 0,9.79338 -8.53226,30.72708 -29.64199,72.72592 -23.48539,46.72531 -57.01581,117.42284 -56.42345,118.96652 0.33787,0.88048 1.85551,1.94947 3.37253,2.37552 3.4454,0.96766 135.54837,1.03513 136.51367,0.0697 1.4283,-1.42865 -0.7115,-4.6157 -5.4899,-8.1767 -25.36262,-18.90092 -34.94078,-31.24496 -28.65675,-36.93193 2.61204,-2.36387 6.01838,-2.15604 12.19527,0.74406 11.58108,5.43744 69.11278,45.59143 72.30698,50.46631 3.5438,5.40861 -0.6074,9.67015 -25.809,26.49498 -19.5653,13.06194 -32.5557,22.4626 -47.36099,34.2733 -12.86476,10.26267 -19.92121,14.8145 -22.96606,14.8145 -2.37378,0 -4.90562,-3.6017 -4.90562,-6.97856 0,-6.00878 11.99907,-18.7037 35.52657,-37.58683 13.992,-11.23004 16.4023,-13.56808 15.2133,-14.75782 -1.0611,-1.06178 -142.39365,-1.52707 -147.40778,-0.48528 l -4.09548,0.85091 -5.1047,14.589 c -2.80759,8.02394 -9.0987,25.87389 -13.98026,39.66654 -27.66793,78.17463 -36.19853,103.20342 -38.58569,113.21048 -3.35256,14.05407 -4.44839,15.86016 -9.55739,15.75192 -2.14185,-0.0454 -5.88055,-0.78582 -8.30821,-1.64546 z M 434.13728,395.13005 c 15.43371,-0.50405 28.45798,-1.31353 28.94282,-1.79884 0.94367,-0.94457 4.4753,-134.2229 3.92736,-148.213 -0.18243,-4.65793 -0.79005,-8.35919 -1.37228,-8.35919 -2.72214,0 -29.4196,51.89483 -37.62858,73.14286 -1.33216,3.44817 -8.97796,21.31592 -16.99065,39.70612 -15.31458,35.14895 -18.54826,43.56515 -17.64405,45.92149 0.40947,1.06704 2.11094,1.31769 6.6275,0.9763 3.34213,-0.25261 18.70417,-0.8717 34.13788,-1.37574 z"
       id="path39" /></g></svg>
